<?xml version="1.0" encoding="UTF-8"?>
<svg width="12px" height="12px" viewBox="0 0 12 12" version="1.1" xmlns="http://www.w3.org/2000/svg" xmlns:xlink="http://www.w3.org/1999/xlink">
    <!-- Generator: Sketch 52.5 (67469) - http://www.bohemiancoding.com/sketch -->
    <title>分组 3</title>
    <desc>Created with Sketch.</desc>
    <g id="问卷调查" stroke="none" stroke-width="1" fill="none" fill-rule="evenodd">
        <g id="编辑问卷" transform="translate(-545.000000, -225.000000)">
            <g id="分组" transform="translate(503.000000, 148.000000)">
                <g id="分组-3" transform="translate(40.000000, 75.000000)">
                    <path d="M8,2 C4.6859375,2 2,4.6859375 2,8 C2,11.3140625 4.6859375,14 8,14 C11.3140625,14 14,11.3140625 14,8 C14,4.6859375 11.3140625,2 8,2 Z M11.6457031,11.6457031 C11.1722656,12.1191406 10.6203125,12.4917969 10.00625,12.7507812 C9.37109375,13.0203125 8.69609375,13.15625 8,13.15625 C7.30390625,13.15625 6.62890625,13.0203125 5.99375,12.7519531 C5.3796875,12.4917969 4.82890625,12.1203125 4.35429688,11.646875 C3.88085938,11.1734375 3.50820312,10.6214844 3.24921875,10.0074219 C2.9796875,9.37109375 2.84375,8.69609375 2.84375,8 C2.84375,7.30390625 2.9796875,6.62890625 3.24804688,5.99375 C3.50820312,5.3796875 3.8796875,4.82890625 4.353125,4.35429688 C4.8265625,3.88085938 5.37851563,3.50820312 5.99257813,3.24921875 C6.62890625,2.9796875 7.30390625,2.84375 8,2.84375 C8.69609375,2.84375 9.37109375,2.9796875 10.00625,3.24804688 C10.6203125,3.50820312 11.1710938,3.8796875 11.6457031,4.353125 C12.1191406,4.8265625 12.4917969,5.37851563 12.7507812,5.99257813 C13.0203125,6.62890625 13.15625,7.30390625 13.15625,8 C13.15625,8.69609375 13.0203125,9.37109375 12.7519531,10.00625 C12.4917969,10.6203125 12.1203125,11.1722656 11.6457031,11.6457031 Z" id="Shape-Copy" fill="#000000" fill-rule="nonzero"></path>
                    <rect id="Rectangle-48-Copy-6" x="0" y="0" width="16" height="16"></rect>
                    <circle id="椭圆形" fill="#000000" cx="8" cy="8" r="2"></circle>
                </g>
            </g>
        </g>
    </g>
</svg>