<?xml version="1.0" encoding="UTF-8"?>
<svg width="12px" height="12px" viewBox="0 0 12 12" version="1.1" xmlns="http://www.w3.org/2000/svg" xmlns:xlink="http://www.w3.org/1999/xlink">
    <!-- Generator: Sketch 52.5 (67469) - http://www.bohemiancoding.com/sketch -->
    <title>分组 11</title>
    <desc>Created with Sketch.</desc>
    <g id="问卷调查" stroke="none" stroke-width="1" fill="none" fill-rule="evenodd">
        <g id="编辑问卷" transform="translate(-545.000000, -270.000000)">
            <g id="分组" transform="translate(503.000000, 148.000000)">
                <g id="分组-11" transform="translate(40.000000, 120.000000)">
                    <rect id="矩形" stroke="#000000" x="2.5" y="2.5" width="11" height="11" rx="2"></rect>
                    <rect id="Rectangle-48-Copy-6" x="0" y="0" width="16" height="16"></rect>
                    <path d="M12.5538805,4.3392379 L7.40177944,9.50707056 L6.05830026,7.15519543 C5.90255736,6.88303864 5.55803518,6.788649 5.28587839,6.9443919 C5.01372161,7.1001348 4.91933197,7.44465698 5.07507487,7.71681377 L6.78667363,10.7136848 C6.89050223,10.8961714 7.08242783,11 7.27907291,11 C7.37503571,11 7.47099851,10.9764026 7.5590955,10.9260615 C7.60943664,10.8961714 7.6550583,10.8615619 7.69281415,10.8206597 C7.69438732,10.8190865 7.69753364,10.8159402 7.6991068,10.814367 L13.3546193,5.14154982 C13.5748617,4.91973417 13.5748617,4.56105355 13.3530461,4.34081106 C13.1328036,4.11742225 12.7756961,4.11742225 12.5538805,4.3392379 Z" id="Path" fill="#000000" fill-rule="nonzero"></path>
                </g>
            </g>
        </g>
    </g>
</svg>