<?xml version="1.0" encoding="UTF-8"?>
<svg width="14px" height="14px" viewBox="0 0 14 14" version="1.1" xmlns="http://www.w3.org/2000/svg" xmlns:xlink="http://www.w3.org/1999/xlink">
    <!-- Generator: Sketch 52.5 (67469) - http://www.bohemiancoding.com/sketch -->
    <title>Group 173</title>
    <desc>Created with Sketch.</desc>
    <g id="问卷调查" stroke="none" stroke-width="1" fill="none" fill-rule="evenodd">
        <g id="编辑问卷" transform="translate(-544.000000, -446.000000)">
            <g id="分组" transform="translate(503.000000, 148.000000)">
                <g id="Group-173" transform="translate(40.000000, 297.000000)">
                    <rect id="Rectangle-48-Copy-6" x="0" y="0" width="16" height="16"></rect>
                    <g id="link" transform="translate(1.031250, 1.031250)" fill="#333333" fill-rule="nonzero">
                        <path d="M7.4171875,9.4171875 L4.6234375,12.2125 C4.2375,12.5984375 3.7234375,12.8125 3.1765625,12.8125 C2.6296875,12.8125 2.115625,12.6 1.7296875,12.2125 C1.34375,11.825 1.128125,11.3125 1.128125,10.765625 C1.128125,10.21875 1.340625,9.7046875 1.728125,9.31875 L4.5234375,6.5234375 C4.74375,6.303125 4.74375,5.946875 4.5234375,5.728125 C4.303125,5.5078125 3.946875,5.5078125 3.728125,5.728125 L0.9328125,8.521875 C0.3328125,9.121875 0.003125,9.91875 0.003125,10.765625 C0.003125,11.6125 0.3328125,12.409375 0.9328125,13.0078125 C1.5515625,13.6265625 2.3640625,13.9359375 3.175,13.9359375 C3.9875,13.9359375 4.8,13.6265625 5.4171875,13.0078125 L8.2125,10.2125 C8.4328125,9.9921875 8.4328125,9.6359375 8.2125,9.4171875 C7.9921875,9.1984375 7.6375,9.1984375 7.4171875,9.4171875 Z M13.00625,0.934375 C11.76875,-0.303125 9.7578125,-0.303125 8.5203125,0.934375 L5.725,3.7296875 C5.5046875,3.95 5.5046875,4.30625 5.725,4.525 C5.9453125,4.7453125 6.3015625,4.7453125 6.5203125,4.525 L9.315625,1.7296875 C10.1140625,0.93125 11.4125,0.93125 12.2109375,1.7296875 C12.596875,2.115625 12.8109375,2.6296875 12.8109375,3.1765625 C12.8109375,3.7234375 12.5984375,4.2375 12.2109375,4.6234375 L9.415625,7.41875 C9.1953125,7.6390625 9.1953125,7.9953125 9.415625,8.2140625 C9.525,8.3234375 9.66875,8.378125 9.8140625,8.378125 C9.959375,8.378125 10.1015625,8.3234375 10.2125,8.2140625 L13.0078125,5.41875 C14.24375,4.1828125 14.24375,2.1703125 13.00625,0.934375 Z M6.5546875,8.2109375 L8.1484375,6.6171875 C8.36875,6.396875 8.36875,6.040625 8.1484375,5.821875 C7.928125,5.6015625 7.571875,5.6015625 7.353125,5.821875 L5.759375,7.415625 C5.5390625,7.6359375 5.5390625,7.9921875 5.759375,8.2109375 C5.86875,8.3203125 6.0125,8.375 6.1578125,8.375 C6.303125,8.375 6.44375,8.3203125 6.5546875,8.2109375 Z" id="Shape"></path>
                    </g>
                </g>
            </g>
        </g>
    </g>
</svg>