<?xml version="1.0" encoding="UTF-8"?>
<svg width="12px" height="13px" viewBox="0 0 12 13" version="1.1" xmlns="http://www.w3.org/2000/svg" xmlns:xlink="http://www.w3.org/1999/xlink">
    <!-- Generator: Sketch 52.5 (67469) - http://www.bohemiancoding.com/sketch -->
    <title>分组 18</title>
    <desc>Created with Sketch.</desc>
    <g id="问卷调查" stroke="none" stroke-width="1" fill="none" fill-rule="evenodd">
        <g id="编辑问卷" transform="translate(-431.000000, -513.000000)">
            <g id="分组-18" transform="translate(429.000000, 511.000000)">
                <g id="矩阵题-copy" transform="translate(2.000000, 2.000000)">
                    <path d="M4.85106383,3.22376549 L4.85106383,4.69112812 C4.85106383,5.13817746 4.63829787,5.36170213 4.21276596,5.36170213 C3.78723404,5.36170213 3.57446809,5.13817746 3.57446809,4.69112812 L3.57446809,3.22376549 C3.57446809,2.77671616 3.78723404,2.55319149 4.21276596,2.55319149 C4.63829787,2.55319149 4.85106383,2.77671616 4.85106383,3.22376549 Z" id="路径" fill="#333333"></path>
                    <path d="M8.17021277,3.22376549 L8.17021277,4.69112812 C8.17021277,5.13817746 7.95744681,5.36170213 7.53191489,5.36170213 C7.10638297,5.36170213 6.89361701,5.13817746 6.89361702,4.69112812 L6.89361702,3.22376549 C6.89361702,2.77671616 7.10638298,2.55319149 7.53191489,2.55319149 C7.95744681,2.55319149 8.17021277,2.77671616 8.17021277,3.22376549 Z" id="路径" fill="#333333"></path>
                    <path d="M4.85106383,7.30887188 L4.85106383,8.77623451 C4.85106383,9.22328384 4.63829787,9.44680851 4.21276596,9.44680851 C3.78723404,9.44680851 3.57446809,9.22328384 3.57446809,8.77623451 L3.57446809,7.30887188 C3.57446809,6.86182254 3.78723404,6.63829787 4.21276596,6.63829787 C4.63829787,6.63829787 4.85106383,6.86182254 4.85106383,7.30887188 Z" id="路径" fill="#333333"></path>
                    <path d="M8.17021277,7.30887188 L8.17021277,8.77623451 C8.17021277,9.22328384 7.95744681,9.44680851 7.53191489,9.44680851 C7.10638297,9.44680851 6.89361701,9.22328384 6.89361702,8.77623451 L6.89361702,7.30887188 C6.89361702,6.86182254 7.10638298,6.63829787 7.53191489,6.63829787 C7.95744681,6.63829787 8.17021277,6.86182254 8.17021277,7.30887188 Z" id="路径" fill="#999999"></path>
                    <path d="M8.47197813,12.5104428 L2.77172428,12.5104428 C1.24176473,12.5088271 0.00182963288,11.2677887 0,9.73625212 L0,2.7741907 C0.00182963288,1.24265415 1.24176473,0.0016156999 2.77172428,0 L9.22808045,0 C10.7580717,0.00161549382 11.9980628,1.24262254 12,2.7741907 L12,9.80564598 C12.0000329,10.0546359 11.8673541,10.2847262 11.6519501,10.4092307 C11.436546,10.5337351 11.1711478,10.5337351 10.9557437,10.4092307 C10.7403397,10.2847262 10.6076609,10.0546359 10.6076938,9.80564598 L10.6076938,2.7741907 C10.6066175,2.01200747 9.98947914,1.39449519 9.22808045,1.39374153 L2.77172428,1.39374153 C2.01040184,1.39460288 1.39338224,2.01208369 1.3923062,2.7741907 L1.3923062,9.73625212 C1.3932749,10.4985117 2.01044474,11.1161429 2.77191954,11.1168968 L8.47197813,11.1168968 C8.85645287,11.1168968 9.16813123,11.4288964 9.16813123,11.8137675 C9.16813123,12.1986386 8.85645287,12.5106383 8.47197813,12.5106383 L8.47197813,12.5104428 Z" id="路径" fill="#333333"></path>
                </g>
                <rect id="Rectangle-48-Copy-7" x="0" y="0" width="16" height="16"></rect>
            </g>
        </g>
    </g>
</svg>