<?xml version="1.0" encoding="UTF-8"?>
<svg width="12px" height="13px" viewBox="0 0 12 13" version="1.1" xmlns="http://www.w3.org/2000/svg" xmlns:xlink="http://www.w3.org/1999/xlink">
    <!-- Generator: Sketch 52.5 (67469) - http://www.bohemiancoding.com/sketch -->
    <title>分组 19</title>
    <desc>Created with Sketch.</desc>
    <g id="问卷调查" stroke="none" stroke-width="1" fill="none" fill-rule="evenodd">
        <g id="编辑问卷" transform="translate(-452.000000, -513.000000)">
            <g id="分组-19" transform="translate(450.000000, 511.000000)">
                <g id="矩阵题-copy-2" transform="translate(2.000000, 2.000000)" fill="#333333">
                    <path d="M4.08469226,6.670574 L4.08469226,9.13793664 C4.08469226,9.58498597 3.8719263,9.80851064 3.44639439,9.80851064 C3.02086247,9.80851064 2.80809652,9.58498597 2.80809652,9.13793664 L2.80809652,6.670574 C2.80809652,6.22352467 3.02086247,6 3.44639439,6 C3.8719263,6 4.08469226,6.22352467 4.08469226,6.670574 Z" id="路径"></path>
                    <path d="M6.52852872,5.670574 L6.52852872,9.13793664 C6.52852872,9.58498597 6.31576276,9.80851064 5.89023085,9.80851064 C5.46469893,9.80851064 5.25193298,9.58498597 5.25193298,9.13793664 L5.25193298,5.670574 C5.25193298,5.22352467 5.46469893,5 5.89023085,5 C6.31576276,5 6.52852872,5.22352467 6.52852872,5.670574 Z" id="路径-copy"></path>
                    <path d="M9.08469226,4.670574 L9.08469226,9.13793664 C9.08469226,9.58498597 8.8719263,9.80851064 8.44639439,9.80851064 C8.02086247,9.80851064 7.80809652,9.58498597 7.80809652,9.13793664 L7.80809652,4.670574 C7.80809652,4.22352467 8.02086247,4 8.44639439,4 C8.8719263,4 9.08469226,4.22352467 9.08469226,4.670574 Z" id="路径-copy-2"></path>
                    <path d="M8.47197813,12.5104428 L2.77172428,12.5104428 C1.24176473,12.5088271 0.00182963288,11.2677887 0,9.73625212 L0,2.7741907 C0.00182963288,1.24265415 1.24176473,0.0016156999 2.77172428,0 L9.22808045,0 C10.7580717,0.00161549382 11.9980628,1.24262254 12,2.7741907 L12,9.80564598 C12.0000329,10.0546359 11.8673541,10.2847262 11.6519501,10.4092307 C11.436546,10.5337351 11.1711478,10.5337351 10.9557437,10.4092307 C10.7403397,10.2847262 10.6076609,10.0546359 10.6076938,9.80564598 L10.6076938,2.7741907 C10.6066175,2.01200747 9.98947914,1.39449519 9.22808045,1.39374153 L2.77172428,1.39374153 C2.01040184,1.39460288 1.39338224,2.01208369 1.3923062,2.7741907 L1.3923062,9.73625212 C1.3932749,10.4985117 2.01044474,11.1161429 2.77191954,11.1168968 L8.47197813,11.1168968 C8.85645287,11.1168968 9.16813123,11.4288964 9.16813123,11.8137675 C9.16813123,12.1986386 8.85645287,12.5106383 8.47197813,12.5106383 L8.47197813,12.5104428 Z" id="路径"></path>
                </g>
                <rect id="Rectangle-48-Copy-8" x="0" y="0" width="16" height="16"></rect>
            </g>
        </g>
    </g>
</svg>