<?xml version="1.0" encoding="UTF-8"?>
<svg width="12px" height="12px" viewBox="0 0 12 12" version="1.1" xmlns="http://www.w3.org/2000/svg" xmlns:xlink="http://www.w3.org/1999/xlink">
    <!-- Generator: Sketch 52.5 (67469) - http://www.bohemiancoding.com/sketch -->
    <title>分组 15</title>
    <desc>Created with Sketch.</desc>
    <g id="问卷调查" stroke="none" stroke-width="1" fill="none" fill-rule="evenodd">
        <g id="编辑问卷" transform="translate(-545.000000, -491.000000)">
            <g id="分组" transform="translate(503.000000, 148.000000)">
                <g id="分组-15" transform="translate(40.000000, 341.000000)">
                    <path d="M8.0123125,2.96511253 C8.0833555,2.96511253 8.15573894,3.00264469 8.19193066,3.07904943 L9.59268427,6.06419611 C9.62083339,6.12451565 9.67713162,6.1660691 9.74147245,6.17545214 L12.8901521,6.65666797 C13.0496637,6.68079579 13.1140046,6.87515873 13.0014081,6.99043606 L10.7119467,9.33753612 C10.6677124,9.38311088 10.6476059,9.44611128 10.6583294,9.50777125 L11.1971839,12.8132817 C11.2186308,12.9406229 11.1167578,13.0438363 11.0014805,13.0438363 C10.9693101,13.0438363 10.9371396,13.0357937 10.9063097,13.0183681 L8.10748332,11.4715072 C8.07799377,11.455422 8.04448292,11.4473794 8.0123125,11.4473794 C7.98014208,11.4473794 7.94663123,11.455422 7.91714168,11.4715072 L5.11831533,13.0183681 C5.08748535,13.0357937 5.0539745,13.0438363 5.02314451,13.0438363 C4.90920762,13.0438363 4.80733463,12.9419633 4.82744114,12.8132817 L5.36629563,9.50777125 C5.37701911,9.44611128 5.3569126,9.38311088 5.31267827,9.33753612 L3.02187644,6.99043606 C2.90927998,6.87515873 2.97496125,6.68079579 3.13313247,6.65666797 L6.28315254,6.17545214 C6.34883381,6.1660691 6.40379161,6.12317521 6.43194072,6.06419611 L7.83269433,3.07904943 C7.86888605,3.00264469 7.94126949,2.96511253 8.0123125,2.96511253 Z M8.0123125,2 C7.79918348,2 7.5914162,2.05763867 7.4104576,2.16755426 C7.21341379,2.28685289 7.05792344,2.45976889 6.96007175,2.6688766 L5.73223414,5.28272305 L2.98836559,5.70227891 C2.55540538,5.76796018 2.20019035,6.06687698 2.06078521,6.48241154 C1.92138006,6.89794611 2.02593392,7.34967239 2.33155289,7.66333396 L4.35158704,9.73430461 L3.87439251,12.6564509 C3.81943471,12.9942403 3.91460553,13.336051 4.13577715,13.5960952 C4.35828921,13.8574798 4.68133382,14.0076084 5.02314451,14.0076084 C5.21884789,14.0076084 5.41321083,13.9566719 5.58612682,13.8615011 L8.0123125,12.521067 L10.4384982,13.8628416 C10.6114142,13.9580124 10.8057771,14.0089489 11.0014805,14.0089489 C11.3432912,14.0089489 11.6663358,13.8588203 11.8888478,13.5974356 C12.1100195,13.3373914 12.2051903,12.9955807 12.1502325,12.6577913 L11.673038,9.73564504 L13.6930721,7.6646744 C13.9986911,7.35101282 14.1019045,6.89928654 13.9638398,6.48375198 C13.8244346,6.06821742 13.4692196,5.76930062 13.0362594,5.70361935 L10.2923909,5.28272305 L9.06455325,2.6688766 C8.96670156,2.45976889 8.81121121,2.28685289 8.6141674,2.16755426 C8.4332088,2.05763867 8.22544152,2 8.0123125,2 Z" id="Shape" fill="#333333" fill-rule="nonzero"></path>
                    <rect id="Rectangle-48-Copy-6" x="0" y="0" width="16" height="16"></rect>
                </g>
            </g>
        </g>
    </g>
</svg>