<?xml version="1.0" standalone="no"?><!DOCTYPE svg PUBLIC "-//W3C//DTD SVG 1.1//EN" "http://www.w3.org/Graphics/SVG/1.1/DTD/svg11.dtd"><svg t="1619751514667" class="icon" viewBox="0 0 1025 1024" version="1.1" xmlns="http://www.w3.org/2000/svg" p-id="2031" width="16.015625" height="16" xmlns:xlink="http://www.w3.org/1999/xlink"><defs><style type="text/css"></style></defs><path d="M259.426304 145.826816l-30.95552-4.498432c-13.5424-1.967104-29.574144-13.617152-35.63008-25.887744l-13.845504-28.0576c-6.055936-12.269568-15.96416-12.269568-22.018048 0l-13.845504 28.0576c-6.057984 12.270592-22.089728 23.92064-35.63008 25.887744l-30.95552 4.498432c-13.5424 1.967104-16.60416 11.392-6.80448 20.943872l22.393856 21.832704c9.79968 9.550848 15.924224 28.40064 13.612032 41.88672l-5.287936 30.83264c-2.312192 13.48608 5.705728 19.311616 17.815552 12.944384l27.687936-14.557184c12.111872-6.367232 31.932416-6.367232 44.044288 0l27.685888 14.557184c12.111872 6.367232 20.129792 0.54272 17.815552-12.944384l-5.285888-30.83264c-2.312192-13.48608 3.812352-32.335872 13.609984-41.88672l22.395904-21.832704C276.026368 157.218816 272.965632 147.79392 259.426304 145.826816z" p-id="2032" fill="#333333"></path><path d="M259.426304 480.313344l-30.95552-4.497408c-13.5424-1.968128-29.574144-13.617152-35.63008-25.887744l-13.845504-28.0576c-6.055936-12.270592-15.96416-12.270592-22.018048 0l-13.845504 28.0576c-6.057984 12.270592-22.089728 23.919616-35.63008 25.887744l-30.95552 4.497408c-13.5424 1.967104-16.60416 11.392-6.80448 20.942848l22.393856 21.832704c9.79968 9.551872 15.924224 28.40064 13.612032 41.88672l-5.287936 30.83264c-2.312192 13.48608 5.705728 19.311616 17.815552 12.944384l27.687936-14.55616c12.111872-6.367232 31.932416-6.367232 44.044288 0l27.685888 14.55616c12.111872 6.367232 20.129792 0.54272 17.815552-12.944384l-5.285888-30.83264c-2.312192-13.48608 3.812352-32.335872 13.609984-41.88672l22.395904-21.832704C276.026368 491.705344 272.965632 482.280448 259.426304 480.313344z" p-id="2033" fill="#333333"></path><path d="M259.426304 814.799872l-30.95552-4.497408c-13.5424-1.967104-29.574144-13.617152-35.63008-25.887744l-13.845504-28.0576c-6.055936-12.270592-15.96416-12.270592-22.018048 0l-13.845504 28.0576c-6.057984 12.269568-22.089728 23.919616-35.63008 25.887744l-30.95552 4.497408c-13.5424 1.967104-16.60416 11.392-6.80448 20.943872l22.393856 21.83168c9.79968 9.551872 15.924224 28.40064 13.612032 41.88672l-5.287936 30.83264c-2.312192 13.48608 5.705728 19.310592 17.815552 12.944384l27.687936-14.557184c12.111872-6.367232 31.932416-6.367232 44.044288 0l27.685888 14.557184c12.111872 6.367232 20.129792 0.54272 17.815552-12.944384l-5.285888-30.83264c-2.312192-13.48608 3.812352-32.335872 13.609984-41.88672l22.395904-21.83168C276.026368 826.192896 272.965632 816.768 259.426304 814.799872z" p-id="2034" fill="#333333"></path><path d="M355.984384 212.77696l408.718336 0c20.610048 0 37.317632-16.707584 37.317632-37.317632s-16.707584-37.318656-37.317632-37.318656L355.984384 138.140672c-20.610048 0-37.317632 16.707584-37.317632 37.318656S335.374336 212.77696 355.984384 212.77696z" p-id="2035" fill="#333333"></path><path d="M922.682368 472.624128 355.984384 472.624128c-20.610048 0-37.317632 16.707584-37.317632 37.317632s16.707584 37.317632 37.317632 37.317632l566.697984 0c20.610048 0 37.317632-16.707584 37.317632-37.317632S943.292416 472.624128 922.682368 472.624128z" p-id="2036" fill="#333333"></path><path d="M922.682368 807.113728 355.984384 807.113728c-20.610048 0-37.317632 16.707584-37.317632 37.317632s16.707584 37.318656 37.317632 37.318656l566.697984 0c20.610048 0 37.317632-16.708608 37.317632-37.318656S943.292416 807.113728 922.682368 807.113728z" p-id="2037" fill="#333333"></path><path d="M921.438208 214.02112c21.298176 0 38.561792-17.26464 38.561792-38.561792 0-21.296128-17.263616-38.562816-38.561792-38.562816-21.29408 0-38.561792 17.265664-38.561792 38.562816C882.876416 196.75648 900.144128 214.02112 921.438208 214.02112z" p-id="2038" fill="#333333"></path></svg>